{
    "asset" : {
        "generator" : "Khronos Blender glTF 2.0 I/O",
        "version" : "2.0"
    },
    "scene" : 0,
    "scenes" : [
        {
            "name" : "Scene",
            "nodes" : [
                0,
                1,
                2,
                3
            ]
        }
    ],
    "nodes" : [
        {
            "mesh" : 0,
            "name" : "Cube"
        },
        {
            "name" : "Camera",
            "rotation" : [
                0.483536034822464,
                0.33687159419059753,
                -0.20870360732078552,
                0.7804827094078064
            ],
            "translation" : [
                7.358891487121582,
                4.958309173583984,
                6.925790786743164
            ]
        },
        {
            "name" : "Circle"
        },
        {
            "mesh" : 1,
            "name" : "Sphere",
            "scale" : [
                1,
                2.570467472076416,
                1
            ],
            "translation" : [
                0,
                1.1264220476150513,
                0
            ]
        }
    ],
    "materials" : [
        {
            "name" : "Material",
            "pbrMetallicRoughness" : {
                "baseColorFactor" : [
                    0.800000011920929,
                    0.800000011920929,
                    0.800000011920929,
                    1
                ],
                "metallicFactor" : 0,
                "roughnessFactor" : 0.5
            }
        },
        {
            "name" : "Material.002",
            "pbrMetallicRoughness" : {
                "baseColorFactor" : [
                    0.8000000715255737,
                    0.24004776775836945,
                    0.01244702935218811,
                    1
                ],
                "metallicFactor" : 1,
                "roughnessFactor" : 0.5
            }
        }
    ],
    "meshes" : [
        {
            "name" : "Cube",
            "primitives" : [
                {
                    "attributes" : {
                        "POSITION" : 0,
                        "NORMAL" : 1,
                        "TEXCOORD_0" : 2
                    },
                    "indices" : 3,
                    "material" : 0
                }
            ]
        },
        {
            "name" : "Sphere.001",
            "primitives" : [
                {
                    "attributes" : {
                        "POSITION" : 4,
                        "NORMAL" : 5,
                        "TEXCOORD_0" : 6
                    },
                    "indices" : 7,
                    "material" : 1
                },
                {
                    "attributes" : {
                        "POSITION" : 8,
                        "NORMAL" : 9,
                        "TEXCOORD_0" : 10
                    },
                    "indices" : 11,
                    "material" : 1
                },
                {
                    "attributes" : {
                        "POSITION" : 12,
                        "NORMAL" : 13,
                        "TEXCOORD_0" : 14
                    },
                    "indices" : 15,
                    "material" : 1
                },
                {
                    "attributes" : {
                        "POSITION" : 16,
                        "NORMAL" : 17,
                        "TEXCOORD_0" : 18
                    },
                    "indices" : 19,
                    "material" : 1
                },
                {
                    "attributes" : {
                        "POSITION" : 20,
                        "NORMAL" : 21,
                        "TEXCOORD_0" : 22
                    },
                    "indices" : 23,
                    "material" : 1
                },
                {
                    "attributes" : {
                        "POSITION" : 24,
                        "NORMAL" : 25,
                        "TEXCOORD_0" : 26
                    },
                    "indices" : 27,
                    "material" : 1
                },
                {
                    "attributes" : {
                        "POSITION" : 28,
                        "NORMAL" : 29,
                        "TEXCOORD_0" : 30
                    },
                    "indices" : 31,
                    "material" : 1
                },
                {
                    "attributes" : {
                        "POSITION" : 32,
                        "NORMAL" : 33,
                        "TEXCOORD_0" : 34
                    },
                    "indices" : 35,
                    "material" : 1
                },
                {
                    "attributes" : {
                        "POSITION" : 36,
                        "NORMAL" : 37,
                        "TEXCOORD_0" : 38
                    },
                    "indices" : 39,
                    "material" : 1
                }
            ]
        }
    ],
    "accessors" : [
        {
            "bufferView" : 0,
            "componentType" : 5126,
            "count" : 28,
            "max" : [
                6.902625560760498,
                2.1866612434387207,
                3.440788507461548
            ],
            "min" : [
                -0.32835936546325684,
                -1.4901161193847656e-08,
                -4.001831531524658
            ],
            "type" : "VEC3"
        },
        {
            "bufferView" : 1,
            "componentType" : 5126,
            "count" : 28,
            "type" : "VEC3"
        },
        {
            "bufferView" : 2,
            "componentType" : 5126,
            "count" : 28,
            "type" : "VEC2"
        },
        {
            "bufferView" : 3,
            "componentType" : 5123,
            "count" : 42,
            "type" : "SCALAR"
        },
        {
            "bufferView" : 4,
            "componentType" : 5126,
            "count" : 65535,
            "max" : [
                0.990729570388794,
                0.8880336284637451,
                3.0566530227661133
            ],
            "min" : [
                4.052708391100168e-09,
                -0.6753946542739868,
                -0.45839986205101013
            ],
            "type" : "VEC3"
        },
        {
            "bufferView" : 5,
            "componentType" : 5126,
            "count" : 65535,
            "type" : "VEC3"
        },
        {
            "bufferView" : 6,
            "componentType" : 5126,
            "count" : 65535,
            "type" : "VEC2"
        },
        {
            "bufferView" : 7,
            "componentType" : 5123,
            "count" : 98301,
            "type" : "SCALAR"
        },
        {
            "bufferView" : 8,
            "componentType" : 5126,
            "count" : 65532,
            "max" : [
                1.2211054563522339,
                0.8880956768989563,
                3.7714998722076416
            ],
            "min" : [
                4.052708391100168e-09,
                -0.6753946542739868,
                -0.2531546652317047
            ],
            "type" : "VEC3"
        },
        {
            "bufferView" : 9,
            "componentType" : 5126,
            "count" : 65532,
            "type" : "VEC3"
        },
        {
            "bufferView" : 10,
            "componentType" : 5126,
            "count" : 65532,
            "type" : "VEC2"
        },
        {
            "bufferView" : 11,
            "componentType" : 5123,
            "count" : 98298,
            "type" : "SCALAR"
        },
        {
            "bufferView" : 12,
            "componentType" : 5126,
            "count" : 65532,
            "max" : [
                1.2070386409759521,
                0.8882764577865601,
                4.616364002227783
            ],
            "min" : [
                4.052708391100168e-09,
                -0.6753946542739868,
                0.007133341394364834
            ],
            "type" : "VEC3"
        },
        {
            "bufferView" : 13,
            "componentType" : 5126,
            "count" : 65532,
            "type" : "VEC3"
        },
        {
            "bufferView" : 14,
            "componentType" : 5126,
            "count" : 65532,
            "type" : "VEC2"
        },
        {
            "bufferView" : 15,
            "componentType" : 5123,
            "count" : 98298,
            "type" : "SCALAR"
        },
        {
            "bufferView" : 16,
            "componentType" : 5126,
            "count" : 65532,
            "max" : [
                0.806952953338623,
                0.8881714344024658,
                4.680107593536377
            ],
            "min" : [
                -0.18905231356620789,
                -0.6753946542739868,
                0.007133341394364834
            ],
            "type" : "VEC3"
        },
        {
            "bufferView" : 17,
            "componentType" : 5126,
            "count" : 65532,
            "type" : "VEC3"
        },
        {
            "bufferView" : 18,
            "componentType" : 5126,
            "count" : 65532,
            "type" : "VEC2"
        },
        {
            "bufferView" : 19,
            "componentType" : 5123,
            "count" : 98298,
            "type" : "SCALAR"
        },
        {
            "bufferView" : 20,
            "componentType" : 5126,
            "count" : 65535,
            "max" : [
                0.07609505951404572,
                0.8880336284637451,
                4.539302349090576
            ],
            "min" : [
                -0.7944932579994202,
                -0.6753964424133301,
                0.007133341394364834
            ],
            "type" : "VEC3"
        },
        {
            "bufferView" : 21,
            "componentType" : 5126,
            "count" : 65535,
            "type" : "VEC3"
        },
        {
            "bufferView" : 22,
            "componentType" : 5126,
            "count" : 65535,
            "type" : "VEC2"
        },
        {
            "bufferView" : 23,
            "componentType" : 5123,
            "count" : 98301,
            "type" : "SCALAR"
        },
        {
            "bufferView" : 24,
            "componentType" : 5126,
            "count" : 65532,
            "max" : [
                0.0011883670231327415,
                0.8880336284637451,
                3.548445224761963
            ],
            "min" : [
                -0.9326707124710083,
                -0.6753964424133301,
                -0.026339763775467873
            ],
            "type" : "VEC3"
        },
        {
            "bufferView" : 25,
            "componentType" : 5126,
            "count" : 65532,
            "type" : "VEC3"
        },
        {
            "bufferView" : 26,
            "componentType" : 5126,
            "count" : 65532,
            "type" : "VEC2"
        },
        {
            "bufferView" : 27,
            "componentType" : 5123,
            "count" : 98298,
            "type" : "SCALAR"
        },
        {
            "bufferView" : 28,
            "componentType" : 5126,
            "count" : 65532,
            "max" : [
                0.0011883670231327415,
                0.8880336284637451,
                3.0566530227661133
            ],
            "min" : [
                -0.923668622970581,
                -0.6753946542739868,
                -0.3630436956882477
            ],
            "type" : "VEC3"
        },
        {
            "bufferView" : 29,
            "componentType" : 5126,
            "count" : 65532,
            "type" : "VEC3"
        },
        {
            "bufferView" : 30,
            "componentType" : 5126,
            "count" : 65532,
            "type" : "VEC2"
        },
        {
            "bufferView" : 31,
            "componentType" : 5123,
            "count" : 98298,
            "type" : "SCALAR"
        },
        {
            "bufferView" : 32,
            "componentType" : 5126,
            "count" : 49156,
            "max" : [
                0.2241298407316208,
                0.8880336284637451,
                3.0566530227661133
            ],
            "min" : [
                -0.6639038324356079,
                -0.6753946542739868,
                -0.45882895588874817
            ],
            "type" : "VEC3"
        },
        {
            "bufferView" : 33,
            "componentType" : 5126,
            "count" : 49156,
            "type" : "VEC3"
        },
        {
            "bufferView" : 34,
            "componentType" : 5126,
            "count" : 49156,
            "type" : "VEC2"
        },
        {
            "bufferView" : 35,
            "componentType" : 5123,
            "count" : 73734,
            "type" : "SCALAR"
        },
        {
            "bufferView" : 36,
            "componentType" : 5126,
            "count" : 22,
            "max" : [
                0.8394270539283752,
                0.7444252371788025,
                4.1823906898498535
            ],
            "min" : [
                -0.4781275987625122,
                -0.6729854345321655,
                -0.0407358817756176
            ],
            "type" : "VEC3"
        },
        {
            "bufferView" : 37,
            "componentType" : 5126,
            "count" : 22,
            "type" : "VEC3"
        },
        {
            "bufferView" : 38,
            "componentType" : 5126,
            "count" : 22,
            "type" : "VEC2"
        },
        {
            "bufferView" : 39,
            "componentType" : 5123,
            "count" : 30,
            "type" : "SCALAR"
        }
    ],
    "bufferViews" : [
        {
            "buffer" : 0,
            "byteLength" : 336,
            "byteOffset" : 0
        },
        {
            "buffer" : 0,
            "byteLength" : 336,
            "byteOffset" : 336
        },
        {
            "buffer" : 0,
            "byteLength" : 224,
            "byteOffset" : 672
        },
        {
            "buffer" : 0,
            "byteLength" : 84,
            "byteOffset" : 896
        },
        {
            "buffer" : 0,
            "byteLength" : 786420,
            "byteOffset" : 980
        },
        {
            "buffer" : 0,
            "byteLength" : 786420,
            "byteOffset" : 787400
        },
        {
            "buffer" : 0,
            "byteLength" : 524280,
            "byteOffset" : 1573820
        },
        {
            "buffer" : 0,
            "byteLength" : 196602,
            "byteOffset" : 2098100
        },
        {
            "buffer" : 0,
            "byteLength" : 786384,
            "byteOffset" : 2294704
        },
        {
            "buffer" : 0,
            "byteLength" : 786384,
            "byteOffset" : 3081088
        },
        {
            "buffer" : 0,
            "byteLength" : 524256,
            "byteOffset" : 3867472
        },
        {
            "buffer" : 0,
            "byteLength" : 196596,
            "byteOffset" : 4391728
        },
        {
            "buffer" : 0,
            "byteLength" : 786384,
            "byteOffset" : 4588324
        },
        {
            "buffer" : 0,
            "byteLength" : 786384,
            "byteOffset" : 5374708
        },
        {
            "buffer" : 0,
            "byteLength" : 524256,
            "byteOffset" : 6161092
        },
        {
            "buffer" : 0,
            "byteLength" : 196596,
            "byteOffset" : 6685348
        },
        {
            "buffer" : 0,
            "byteLength" : 786384,
            "byteOffset" : 6881944
        },
        {
            "buffer" : 0,
            "byteLength" : 786384,
            "byteOffset" : 7668328
        },
        {
            "buffer" : 0,
            "byteLength" : 524256,
            "byteOffset" : 8454712
        },
        {
            "buffer" : 0,
            "byteLength" : 196596,
            "byteOffset" : 8978968
        },
        {
            "buffer" : 0,
            "byteLength" : 786420,
            "byteOffset" : 9175564
        },
        {
            "buffer" : 0,
            "byteLength" : 786420,
            "byteOffset" : 9961984
        },
        {
            "buffer" : 0,
            "byteLength" : 524280,
            "byteOffset" : 10748404
        },
        {
            "buffer" : 0,
            "byteLength" : 196602,
            "byteOffset" : 11272684
        },
        {
            "buffer" : 0,
            "byteLength" : 786384,
            "byteOffset" : 11469288
        },
        {
            "buffer" : 0,
            "byteLength" : 786384,
            "byteOffset" : 12255672
        },
        {
            "buffer" : 0,
            "byteLength" : 524256,
            "byteOffset" : 13042056
        },
        {
            "buffer" : 0,
            "byteLength" : 196596,
            "byteOffset" : 13566312
        },
        {
            "buffer" : 0,
            "byteLength" : 786384,
            "byteOffset" : 13762908
        },
        {
            "buffer" : 0,
            "byteLength" : 786384,
            "byteOffset" : 14549292
        },
        {
            "buffer" : 0,
            "byteLength" : 524256,
            "byteOffset" : 15335676
        },
        {
            "buffer" : 0,
            "byteLength" : 196596,
            "byteOffset" : 15859932
        },
        {
            "buffer" : 0,
            "byteLength" : 589872,
            "byteOffset" : 16056528
        },
        {
            "buffer" : 0,
            "byteLength" : 589872,
            "byteOffset" : 16646400
        },
        {
            "buffer" : 0,
            "byteLength" : 393248,
            "byteOffset" : 17236272
        },
        {
            "buffer" : 0,
            "byteLength" : 147468,
            "byteOffset" : 17629520
        },
        {
            "buffer" : 0,
            "byteLength" : 264,
            "byteOffset" : 17776988
        },
        {
            "buffer" : 0,
            "byteLength" : 264,
            "byteOffset" : 17777252
        },
        {
            "buffer" : 0,
            "byteLength" : 176,
            "byteOffset" : 17777516
        },
        {
            "buffer" : 0,
            "byteLength" : 60,
            "byteOffset" : 17777692
        }
    ],
    "buffers" : [
        {
            "byteLength" : 17777752,
            "uri" : "potatometalic.bin"
        }
    ]
}
