{
  "accessors": [
    {
      "bufferView": 2,
      "componentType": 5126,
      "count": 4,
      "max": [
        10.400248527526855,
        0.36301198601722717,
        29.242687225341797
      ],
      "min": [
        10.372323036193848,
        -0.37046098709106445,
        29.233612060546875
      ],
      "type": "VEC3"
    },
    {
      "bufferView": 1,
      "componentType": 5126,
      "count": 4,
      "max": [
        0,
        0
      ],
      "min": [
        0,
        0
      ],
      "type": "VEC2"
    },
    {
      "bufferView": 0,
      "componentType": 5125,
      "count": 4,
      "max": [
        3
      ],
      "min": [
        0
      ],
      "type": "SCALAR"
    },
    {
      "bufferView": 2,
      "byteOffset": 48,
      "componentType": 5126,
      "count": 1268,
      "max": [
        15.034199714660645,
        14.625722885131836,
        41.0833740234375
      ],
      "min": [
        -15.06263542175293,
        -14.540945053100586,
        0.52115398645401001
      ],
      "type": "VEC3"
    },
    {
      "bufferView": 2,
      "byteOffset": 15264,
      "componentType": 5126,
      "count": 1268,
      "max": [
        0.99838697910308838,
        0.99948829412460327,
        0.99113285541534424
      ],
      "min": [
        -0.99974054098129272,
        -0.99851775169372559,
        -0.99998390674591064
      ],
      "type": "VEC3"
    },
    {
      "bufferView": 3,
      "componentType": 5126,
      "count": 1268,
      "max": [
        0.9995761513710022,
        0.99999886751174927,
        0.99857181310653687,
        1
      ],
      "min": [
        -0.99804186820983887,
        -0.99977105855941772,
        -0.99981802701950073,
        1
      ],
      "type": "VEC4"
    },
    {
      "bufferView": 1,
      "byteOffset": 32,
      "componentType": 5126,
      "count": 1268,
      "max": [
        1,
        1
      ],
      "min": [
        0,
        0.010613000020384789
      ],
      "type": "VEC2"
    },
    {
      "bufferView": 0,
      "byteOffset": 16,
      "componentType": 5125,
      "count": 6924,
      "max": [
        1267
      ],
      "min": [
        0
      ],
      "type": "SCALAR"
    }
  ],
  "asset": {
    "extras": {
      "author": "Doctor Jana (https://sketchfab.com/docjana)",
      "license": "CC-BY-4.0 (http://creativecommons.org/licenses/by/4.0/)",
      "source": "https://sketchfab.com/3d-models/oinochoe-with-satyr-all-quad-mesh-1173-verts-66e2ab83ae7248058b2ab82813685f53",
      "title": "Oinochoe With Satyr All Quad Mesh 1173 Verts"
    },
    "generator": "Sketchfab-6.3.0",
    "version": "2.0"
  },
  "bufferViews": [
    {
      "buffer": 0,
      "byteLength": 27712,
      "byteOffset": 0,
      "name": "floatBufferViews",
      "target": 34963
    },
    {
      "buffer": 0,
      "byteLength": 10176,
      "byteOffset": 27712,
      "byteStride": 8,
      "name": "floatBufferViews",
      "target": 34962
    },
    {
      "buffer": 0,
      "byteLength": 30480,
      "byteOffset": 37888,
      "byteStride": 12,
      "name": "floatBufferViews",
      "target": 34962
    },
    {
      "buffer": 0,
      "byteLength": 20288,
      "byteOffset": 68368,
      "byteStride": 16,
      "name": "floatBufferViews",
      "target": 34962
    }
  ],
  "buffers": [
    {
      "byteLength": 88656,
      "uri": "scene.bin"
    }
  ],
  "images": [
    {
      "uri": "textures/OinochoeWithSatyr_baseColor.png"
    }
  ],
  "materials": [
    {
      "doubleSided": true,
      "name": "OinochoeWithSatyr",
      "pbrMetallicRoughness": {
        "baseColorFactor": [
          1,
          1,
          1,
          1
        ],
        "baseColorTexture": {
          "index": 0,
          "texCoord": 0
        },
        "metallicFactor": 0,
        "roughnessFactor": 0.59999999999999998
      }
    }
  ],
  "meshes": [
    {
      "primitives": [
        {
          "attributes": {
            "POSITION": 0,
            "TEXCOORD_0": 1
          },
          "indices": 2,
          "material": 0,
          "mode": 1
        }
      ]
    },
    {
      "primitives": [
        {
          "attributes": {
            "NORMAL": 4,
            "POSITION": 3,
            "TANGENT": 5,
            "TEXCOORD_0": 6
          },
          "indices": 7,
          "material": 0,
          "mode": 4
        }
      ]
    }
  ],
  "nodes": [
    {
      "children": [
        1
      ],
      "name": "RootNode (gltf orientation matrix)",
      "rotation": [
        -0.70710678118654746,
        -0,
        -0,
        0.70710678118654757
      ]
    },
    {
      "children": [
        2
      ],
      "name": "RootNode (model correction matrix)"
    },
    {
      "children": [
        3,
        4
      ],
      "name": "1247b5bf69fb4012a3f26e237cf90caf.obj.cleaner.materialmerger.gles"
    },
    {
      "mesh": 0,
      "name": ""
    },
    {
      "mesh": 1,
      "name": ""
    }
  ],
  "samplers": [
    {
      "magFilter": 9729,
      "minFilter": 9987,
      "wrapS": 10497,
      "wrapT": 10497
    }
  ],
  "scene": 0,
  "scenes": [
    {
      "name": "OSG_Scene",
      "nodes": [
        0
      ]
    }
  ],
  "textures": [
    {
      "sampler": 0,
      "source": 0
    }
  ]
}

